<svg id="Слой_1" data-name="Слой 1" xmlns="http://www.w3.org/2000/svg" viewBox="0 0 595.28 500.6"><title>Монтажная область 1</title><path d="M593.6,16.81c.34,9-5.75,14.69-9.38,21.43s-7.82,13.37-11.82,20-8.2,13.28-12.24,20c-3.88,6.42-7.63,12.91-11.49,19.33-4.11,6.83-8.35,13.58-12.4,20.45-4.79,8.13-9.34,16.4-14.17,24.5-3.86,6.47-8.08,12.72-12,19.15s-7.78,13.27-11.71,19.88c-3.08,5.17-6.26,10.29-9.37,15.44-3.91,6.49-7.78,13-11.7,19.51-4.12,6.83-8.34,13.59-12.39,20.46-4.8,8.16-9.36,16.46-14.2,24.59-4.64,7.81-9.55,15.45-14.26,23.22-4.1,6.78-8.05,13.65-12.13,20.45-3.85,6.42-7.82,12.78-11.67,19.2-4.08,6.8-8,13.66-12.12,20.45-3.85,6.42-7.82,12.78-11.68,19.2-4.08,6.8-8,13.66-12.11,20.46-3.85,6.42-7.83,12.77-11.68,19.2-4.08,6.8-8,13.65-12.11,20.46-3.78,6.35-7.64,12.65-11.43,19-4.15,6.94-8.16,14-12.4,20.86-4.91,8-9,16.82-15.34,23.42-5.27,5.47-13.52,6.34-21.66,4.58-4.58-1-9.61-1-12.69-4.74-3.64-4.49-6.49-9.63-9.52-14.6-4.13-6.78-8.08-13.67-12.12-20.5q-5.85-9.87-11.74-19.7c-4-6.67-8.07-13.31-12.07-20s-7.79-13.16-11.72-19.71-8.08-13.28-12.08-19.94-7.78-13.16-11.71-19.71-8.08-13.28-12.08-19.94-7.78-13.16-11.71-19.72-8.09-13.27-12.09-19.94-7.77-13.16-11.7-19.72-8.09-13.27-12.09-19.94-7.78-13.16-11.7-19.72-7.94-13.18-11.89-19.78-7.91-13.39-11.94-20-8.2-13.2-12.2-19.86-7.66-13.16-11.57-19.69-8.14-13.24-12.14-19.9-7.73-13.11-11.63-19.65S47.81,102,43.86,95.43s-7.94-13.36-11.94-20-7.86-13-11.77-19.56c-4-6.74-7.75-13.7-12.15-20.19C4.1,29.9,1.31,24.2,2.28,17c.58-4.3,8.83-13.42,13.25-13.55,5.78-.17,11.74-1,17.32.09A68.67,68.67,0,0,1,50.26,9C55,11.36,60.48,12.32,65.62,13.9c6.47,2,12.93,4,19.33,6.18,4.74,1.62,9.52,3.46,14.4,4.76,6.84,1.83,13.46,4.21,20.14,6.46,4.86,1.63,9.85,3.31,14.85,4.75,6.57,1.9,13.06,4.08,19.52,6.15,5.37,1.72,10.71,4.05,16.4,5.2,5.9,1.19,11.51,3.78,17.28,5.67,5.41,1.78,10.86,3.44,16.29,5.17,6,1.9,11.93,3.83,17.9,5.73,5.67,1.81,11.36,3.54,17,5.39,5.94,2,12,3.36,17.88,5.75,4.41,1.79,9.2,3,13.82,4.56,10.89,3.56,22,6.59,33.63,4.9,9.14-1.33,17.8-4.51,26.39-7.91a143.27,143.27,0,0,1,15.9-5c6.29-1.67,12.41-3.72,18.55-5.84C370.22,64,375.6,62.06,381,60.5c6.14-1.77,12.25-3.59,18.31-5.67C404.8,53,410.3,51,415.89,49.36c6-1.71,12-3.82,17.95-5.55,5.67-1.66,11-4.3,16.79-5.63,6-1.36,11.73-3.66,17.54-5.5,5.17-1.63,10.29-3.51,15.48-5.14,6.35-2,12.76-3.81,19.06-6,5.06-1.75,10.34-3.55,15.62-5,6.16-1.72,12.17-4,18.26-6,5.2-1.71,10.39-3.47,15.65-5,4.31-1.24,8.8-3.29,13.05-3,5.38.43,11.06-.45,16.29,2.17,3.47,1.74,7.2,2.58,10.4,5.3C594.88,12.53,592.25,15.07,593.6,16.81Z"/></svg>