<svg xmlns="http://www.w3.org/2000/svg" viewBox="0 0 143.02 85.35"><defs><style>.cls-1{fill:#fff;}</style></defs><title>Asset 5</title><g id="Layer_2" data-name="Layer 2"><g id="Layer_1-2" data-name="Layer 1"><path class="cls-1" d="M.1,0H25.71V5.57H6V17.25h9.46c7.23,0,12.52,4.73,12.52,11.69S22.64,40.63,15.41,40.63H.1ZM15.69,35.06c3.34,0,6.4-1.94,6.4-6.12s-3.06-6.12-6.4-6.12H6V35.06Z"/><path class="cls-1" d="M52.05,0A20.29,20.29,0,1,1,31.77,20.29,20.26,20.26,0,0,1,52.05,0Zm0,35.3c8.7,0,14.7-6.32,14.7-15s-6-15.07-14.7-15.07S37.3,11.6,37.3,20.35,43.36,35.31,52.05,35.31Z"/><path class="cls-1" d="M25.05,44.72v5.57H15.47V85.35H9.57V50.29H0V44.72Z"/><path class="cls-1" d="M78.24,7.41V.05h4.44V.94H79.24V3.11h1.38a3.86,3.86,0,0,1,1,.14,2.33,2.33,0,0,1,.82.4,1.82,1.82,0,0,1,.53.67,2,2,0,0,1,.19.92,2.13,2.13,0,0,1-.2.94,1.9,1.9,0,0,1-.54.68,2.48,2.48,0,0,1-.83.41,3.84,3.84,0,0,1-1,.14Zm2.28-.9a2.07,2.07,0,0,0,1.24-.33,1.09,1.09,0,0,0,.45-.94,1,1,0,0,0-.46-.93A2.23,2.23,0,0,0,80.53,4H79.24v2.5Z"/><path class="cls-1" d="M89.29,4.84V5a1.09,1.09,0,0,1,0,.18h-4a1.81,1.81,0,0,0,.14.62,1.46,1.46,0,0,0,.35.49,2,2,0,0,0,.51.34,1.68,1.68,0,0,0,.63.12,1.66,1.66,0,0,0,.89-.23A1.86,1.86,0,0,0,88.41,6l.7.5a2.48,2.48,0,0,1-1,.8,2.77,2.77,0,0,1-1.2.25,2.73,2.73,0,0,1-1-.19A2.43,2.43,0,0,1,84.55,6a2.88,2.88,0,0,1,0-2.11,2.46,2.46,0,0,1,.53-.83,2.22,2.22,0,0,1,.81-.54,2.65,2.65,0,0,1,2,0,1.93,1.93,0,0,1,.75.53,2.24,2.24,0,0,1,.47.79A3,3,0,0,1,89.29,4.84Zm-.93-.33a1.56,1.56,0,0,0-.4-1,1.38,1.38,0,0,0-1.07-.41,1.53,1.53,0,0,0-.6.12,1.75,1.75,0,0,0-.48.32,1.57,1.57,0,0,0-.34.46,1.67,1.67,0,0,0-.15.54Z"/><path class="cls-1" d="M94.05,7.41l-1.47-3.8L91,7.41H90l2.1-4.95h1l2,5Z"/><path class="cls-1" d="M101.11,4.93a2.59,2.59,0,0,1-.2,1.05,2.39,2.39,0,0,1-.56.83,2.57,2.57,0,0,1-.85.54,2.81,2.81,0,0,1-1.06.19,2.76,2.76,0,0,1-1-.19,2.57,2.57,0,0,1-.85-.54A2.7,2.7,0,0,1,96,6a2.86,2.86,0,0,1,0-2.1,2.65,2.65,0,0,1,.56-.82,2.29,2.29,0,0,1,.85-.54,2.77,2.77,0,0,1,1-.2,2.82,2.82,0,0,1,1.06.2,2.29,2.29,0,0,1,.85.54,2.35,2.35,0,0,1,.56.82A2.59,2.59,0,0,1,101.11,4.93Zm-1,0a2,2,0,0,0-.12-.7,1.87,1.87,0,0,0-.34-.56,1.59,1.59,0,0,0-.53-.39,1.76,1.76,0,0,0-.71-.14,1.8,1.8,0,0,0-.71.14,1.69,1.69,0,0,0-.53.39,1.84,1.84,0,0,0-.33.56,2.25,2.25,0,0,0,0,1.39,1.78,1.78,0,0,0,.33.57,1.87,1.87,0,0,0,.53.39,1.8,1.8,0,0,0,.71.14,1.76,1.76,0,0,0,.71-.14,1.74,1.74,0,0,0,.53-.39,1.8,1.8,0,0,0,.34-.57A2,2,0,0,0,100.14,4.93Z"/><path class="cls-1" d="M103.48,9.9h-1V2.46h.94v.79h0a2.1,2.1,0,0,1,.77-.68,2.25,2.25,0,0,1,1-.24,2.46,2.46,0,0,1,1,.21,2.34,2.34,0,0,1,.79.55,2.49,2.49,0,0,1,.5.83,2.79,2.79,0,0,1,.18,1,2.88,2.88,0,0,1-.18,1,2.44,2.44,0,0,1-.5.82,2.23,2.23,0,0,1-.79.56,2.51,2.51,0,0,1-1,.21,2.11,2.11,0,0,1-1-.23,1.83,1.83,0,0,1-.77-.66h0Zm3.32-5a2.26,2.26,0,0,0-.11-.69,1.47,1.47,0,0,0-.33-.57,1.62,1.62,0,0,0-.53-.39,1.58,1.58,0,0,0-.71-.15,1.74,1.74,0,0,0-.69.14,1.57,1.57,0,0,0-.55.39,1.65,1.65,0,0,0-.35.57,1.82,1.82,0,0,0-.13.7,1.82,1.82,0,0,0,.13.7,1.87,1.87,0,0,0,.35.57,1.55,1.55,0,0,0,.55.38,1.82,1.82,0,0,0,1.4,0,1.61,1.61,0,0,0,.86-1A2.26,2.26,0,0,0,106.8,4.93Z"/><path class="cls-1" d="M111,6.37h0l1.39-3.91h1L111.31,8c-.11.28-.22.54-.32.78a3,3,0,0,1-.37.61,1.42,1.42,0,0,1-.51.4,1.63,1.63,0,0,1-.74.14,2.17,2.17,0,0,1-.36,0l-.36-.05.11-.84a1.31,1.31,0,0,0,.25.06,1.27,1.27,0,0,0,.28,0,.73.73,0,0,0,.56-.21,1.85,1.85,0,0,0,.35-.61l.34-.88-2.1-4.92h1.07Z"/><path class="cls-1" d="M118,3.73a1.1,1.1,0,0,0-.48-.42,1.5,1.5,0,0,0-.69-.17,1.74,1.74,0,0,0-.69.14,1.6,1.6,0,0,0-.53.38,1.63,1.63,0,0,0-.34.57,2,2,0,0,0-.12.7,2.12,2.12,0,0,0,.12.71,1.5,1.5,0,0,0,.34.56,1.47,1.47,0,0,0,.53.38,1.74,1.74,0,0,0,.69.14,1.53,1.53,0,0,0,.72-.16,1.43,1.43,0,0,0,.5-.41l.65.58a2.39,2.39,0,0,1-1.88.81,2.92,2.92,0,0,1-1.08-.19,2.57,2.57,0,0,1-.85-.54,2.48,2.48,0,0,1-.54-.83,2.86,2.86,0,0,1,0-2.1,2.44,2.44,0,0,1,.54-.82,2.29,2.29,0,0,1,.85-.54,2.92,2.92,0,0,1,1.08-.2,2.66,2.66,0,0,1,1,.21,2,2,0,0,1,.82.61Z"/><path class="cls-1" d="M123.2,3.73a1.07,1.07,0,0,0-.49-.42,1.43,1.43,0,0,0-.68-.17,1.7,1.7,0,0,0-.69.14,1.6,1.6,0,0,0-.53.38,1.63,1.63,0,0,0-.34.57,2,2,0,0,0-.12.7,2.12,2.12,0,0,0,.12.71,1.5,1.5,0,0,0,.34.56,1.47,1.47,0,0,0,.53.38,1.7,1.7,0,0,0,.69.14,1.46,1.46,0,0,0,.71-.16,1.38,1.38,0,0,0,.51-.41l.64.58a2.3,2.3,0,0,1-.78.59,2.47,2.47,0,0,1-1.09.22,2.88,2.88,0,0,1-1.08-.19,2.57,2.57,0,0,1-.85-.54,2.48,2.48,0,0,1-.54-.83,2.86,2.86,0,0,1,0-2.1,2.44,2.44,0,0,1,.54-.82,2.29,2.29,0,0,1,.85-.54,2.88,2.88,0,0,1,1.08-.2,2.66,2.66,0,0,1,1,.21,2,2,0,0,1,.82.61Z"/><path class="cls-1" d="M125.82,4.43a3.11,3.11,0,0,1,.69.07l1.6-2h1.08l-1.83,2.29a2.55,2.55,0,0,1,.71.39,2.71,2.71,0,0,1,.55.57,3.44,3.44,0,0,1,.41.76,6.48,6.48,0,0,1,.31.94h-1.07a4.37,4.37,0,0,0-.34-1,2.15,2.15,0,0,0-.51-.66,1.84,1.84,0,0,0-.69-.37,4.74,4.74,0,0,0-.91-.13v2.2h-1V2.46h1Z"/><path class="cls-1" d="M133.72,4.21a1.08,1.08,0,0,0-.32-.84,1.34,1.34,0,0,0-.89-.28,1.88,1.88,0,0,0-.78.16,2,2,0,0,0-.62.4l-.52-.58a2.53,2.53,0,0,1,.86-.54,3.15,3.15,0,0,1,1.16-.21,2.58,2.58,0,0,1,.8.12,1.75,1.75,0,0,1,.63.34,1.65,1.65,0,0,1,.41.58,2,2,0,0,1,.16.81,2.72,2.72,0,0,1,0,.28V6.33c0,.18,0,.37,0,.57a3.67,3.67,0,0,0,.05.51h-.88l0-.37c0-.12,0-.24,0-.36h0a1.85,1.85,0,0,1-.72.65,2.28,2.28,0,0,1-1,.2,2,2,0,0,1-.58-.08,1.44,1.44,0,0,1-.56-.26,1.58,1.58,0,0,1-.43-.46,1.42,1.42,0,0,1-.16-.72,1.32,1.32,0,0,1,.29-.89,1.83,1.83,0,0,1,.77-.49,3.9,3.9,0,0,1,1.09-.22c.41,0,.83,0,1.26,0Zm-.2.81c-.26,0-.53,0-.79,0a3.17,3.17,0,0,0-.73.13,1.41,1.41,0,0,0-.54.3.64.64,0,0,0-.21.5.81.81,0,0,0,.1.39.72.72,0,0,0,.24.25.89.89,0,0,0,.33.14,1.55,1.55,0,0,0,.37,0,1.45,1.45,0,0,0,.61-.11,1.23,1.23,0,0,0,.45-.32,1.33,1.33,0,0,0,.29-.47,1.69,1.69,0,0,0,.09-.56V5Z"/><path class="cls-1" d="M138.57,5.45a1.34,1.34,0,0,0-1.1.48,2.8,2.8,0,0,0-.5,1.48H135.9a3.45,3.45,0,0,1,.49-1.51,1.75,1.75,0,0,1,1-.79v0a1.69,1.69,0,0,1-.87-.33,1.1,1.1,0,0,1-.35-.89,1.28,1.28,0,0,1,.15-.63,1.23,1.23,0,0,1,.42-.43,1.87,1.87,0,0,1,.64-.26,4.15,4.15,0,0,1,.82-.08h2.07v5h-1v-2ZM137.13,4a.56.56,0,0,0,.1.35.61.61,0,0,0,.26.21,1.46,1.46,0,0,0,.4.1l.49,0h.91V3.28h-.92l-.51,0a1.25,1.25,0,0,0-.39.09.54.54,0,0,0-.25.22A.65.65,0,0,0,137.13,4Z"/><path class="cls-1" d="M85.61,14.72a4,4,0,0,1-.29,1.57,3.66,3.66,0,0,1-.81,1.23,3.79,3.79,0,0,1-1.23.8,4.4,4.4,0,0,1-3.09,0,3.79,3.79,0,0,1-1.23-.8,3.66,3.66,0,0,1-.81-1.23,4.37,4.37,0,0,1,0-3.13A3.48,3.48,0,0,1,79,12a3.79,3.79,0,0,1,1.23-.8,4.4,4.4,0,0,1,3.09,0,3.79,3.79,0,0,1,1.23.8,3.48,3.48,0,0,1,.81,1.21A4,4,0,0,1,85.61,14.72Zm-1.07,0a3,3,0,0,0-.2-1.13,2.7,2.7,0,0,0-.56-.94A2.49,2.49,0,0,0,82.9,12a2.78,2.78,0,0,0-1.17-.24,2.74,2.74,0,0,0-1.16.24,2.49,2.49,0,0,0-.88.65,2.7,2.7,0,0,0-.56.94,3,3,0,0,0-.2,1.13,3.18,3.18,0,0,0,.2,1.16,2.7,2.7,0,0,0,.56.94,2.47,2.47,0,0,0,.88.64,2.74,2.74,0,0,0,1.16.24,2.78,2.78,0,0,0,1.17-.24,2.47,2.47,0,0,0,.88-.64,2.7,2.7,0,0,0,.56-.94A3.18,3.18,0,0,0,84.54,14.72Z"/><path class="cls-1" d="M88,20.91H87V13.47H88v.79h0a2,2,0,0,1,.77-.68,2.25,2.25,0,0,1,1-.24,2.39,2.39,0,0,1,1.82.76,2.67,2.67,0,0,1,.5.83,2.92,2.92,0,0,1,0,2,2.56,2.56,0,0,1-.5.83,2.47,2.47,0,0,1-.79.56,2.51,2.51,0,0,1-1,.21,2.31,2.31,0,0,1-1-.23,1.89,1.89,0,0,1-.77-.66h0Zm3.32-5a2.17,2.17,0,0,0-.11-.69,1.47,1.47,0,0,0-.33-.57,1.38,1.38,0,0,0-.53-.39,1.61,1.61,0,0,0-.71-.15,1.82,1.82,0,0,0-.7.14,1.63,1.63,0,0,0-.54.39,1.85,1.85,0,0,0-.36.57,2,2,0,0,0-.12.7,2.06,2.06,0,0,0,.12.7,2.12,2.12,0,0,0,.36.57,1.6,1.6,0,0,0,.54.38,1.82,1.82,0,0,0,.7.14,1.61,1.61,0,0,0,.71-.15,1.47,1.47,0,0,0,.53-.38,1.64,1.64,0,0,0,.33-.57A2.26,2.26,0,0,0,91.3,15.94Z"/><path class="cls-1" d="M94.62,18.42h-1v-5h3.18v.78H94.62Z"/><path class="cls-1" d="M100.9,15.22a1.08,1.08,0,0,0-.32-.84,1.28,1.28,0,0,0-.89-.28,1.92,1.92,0,0,0-.79.16,1.9,1.9,0,0,0-.61.4l-.52-.58a2.53,2.53,0,0,1,.86-.54,3.09,3.09,0,0,1,1.15-.21,2.53,2.53,0,0,1,.8.12,1.59,1.59,0,0,1,.63.34,1.47,1.47,0,0,1,.42.58,2.2,2.2,0,0,1,.16.81,2.72,2.72,0,0,1,0,.28v1.87c0,.19,0,.38,0,.58s0,.36,0,.51H101c0-.12,0-.24,0-.37s0-.24,0-.36h0a1.85,1.85,0,0,1-.72.65,2.28,2.28,0,0,1-1,.2,2.53,2.53,0,0,1-.59-.08,1.68,1.68,0,0,1-.56-.26,1.37,1.37,0,0,1-.42-.47,1.38,1.38,0,0,1-.16-.71,1.27,1.27,0,0,1,.29-.89,1.84,1.84,0,0,1,.77-.5,4.22,4.22,0,0,1,1.09-.21c.41,0,.83-.05,1.26-.05Zm-.2.8a7.14,7.14,0,0,0-.8,0,3.08,3.08,0,0,0-.72.13,1.41,1.41,0,0,0-.54.3.64.64,0,0,0-.21.5.71.71,0,0,0,.1.39.92.92,0,0,0,.23.25.94.94,0,0,0,.34.14,1.55,1.55,0,0,0,.37,0,1.66,1.66,0,0,0,.61-.11,1.23,1.23,0,0,0,.45-.32,1.18,1.18,0,0,0,.28-.47,1.69,1.69,0,0,0,.1-.56V16Z"/><path class="cls-1" d="M104.41,18.42h-1v-5h1v1.95h2.51V13.47h1v5h-1V16.2h-2.51Z"/><path class="cls-1" d="M113.33,14.7l-2.81,3.72h-1v-5h1v3.6l2.81-3.6h1v5h-1Z"/><path class="cls-1" d="M116.2,14.73l-.66-.43.13-.21a1.48,1.48,0,0,1,.33-.34,2.4,2.4,0,0,1,.58-.31,2.56,2.56,0,0,1,.89-.14,2.72,2.72,0,0,1,.85.12,1.83,1.83,0,0,1,.59.31,1.37,1.37,0,0,1,.35.45,1.34,1.34,0,0,1,.11.51,1,1,0,0,1-.34.82,1.44,1.44,0,0,1-.82.37v0a2.09,2.09,0,0,1,.49.08,1.19,1.19,0,0,1,.44.21.92.92,0,0,1,.3.35,1,1,0,0,1,.12.51,1.18,1.18,0,0,1-.16.63,1.38,1.38,0,0,1-.43.47,2.17,2.17,0,0,1-.67.3,3.33,3.33,0,0,1-.86.1,2.68,2.68,0,0,1-.92-.13,2.17,2.17,0,0,1-.59-.31,1.67,1.67,0,0,1-.33-.31.9.9,0,0,0-.14-.16l.62-.52.1.13a1.15,1.15,0,0,0,.25.23,1.75,1.75,0,0,0,.41.22,1.65,1.65,0,0,0,.62.1,1.51,1.51,0,0,0,.85-.21.69.69,0,0,0,.3-.6.62.62,0,0,0-.29-.54,1.47,1.47,0,0,0-.87-.21h-.69v-.66h.6a1.57,1.57,0,0,0,.79-.18.61.61,0,0,0,.32-.57.8.8,0,0,0-.26-.58,1.14,1.14,0,0,0-.81-.25,1.46,1.46,0,0,0-.6.11,1.51,1.51,0,0,0-.36.25A1.41,1.41,0,0,0,116.2,14.73Z"/><path class="cls-1" d="M124,15.22a1.08,1.08,0,0,0-.32-.84,1.28,1.28,0,0,0-.89-.28,2.08,2.08,0,0,0-1.4.56l-.52-.58a2.53,2.53,0,0,1,.86-.54,3.09,3.09,0,0,1,1.15-.21,2.49,2.49,0,0,1,.8.12,1.59,1.59,0,0,1,.63.34,1.47,1.47,0,0,1,.42.58,2.2,2.2,0,0,1,.16.81,2.72,2.72,0,0,1,0,.28v1.87c0,.19,0,.38,0,.58s0,.36,0,.51h-.87c0-.12,0-.24,0-.37s0-.24,0-.36h0a1.85,1.85,0,0,1-.72.65,2.28,2.28,0,0,1-1,.2,2.45,2.45,0,0,1-.58-.08,1.64,1.64,0,0,1-.57-.26,1.37,1.37,0,0,1-.42-.47,1.38,1.38,0,0,1-.16-.71,1.27,1.27,0,0,1,.29-.89,1.84,1.84,0,0,1,.77-.5,4.3,4.3,0,0,1,1.09-.21c.41,0,.83-.05,1.26-.05Zm-.2.8a7.26,7.26,0,0,0-.8,0,3.08,3.08,0,0,0-.72.13,1.41,1.41,0,0,0-.54.3.64.64,0,0,0-.21.5.71.71,0,0,0,.1.39.82.82,0,0,0,.24.25.82.82,0,0,0,.33.14,1.55,1.55,0,0,0,.37,0,1.66,1.66,0,0,0,.61-.11,1.23,1.23,0,0,0,.45-.32,1.18,1.18,0,0,0,.28-.47,1.47,1.47,0,0,0,.1-.56V16Z"/><path class="cls-1" d="M126.5,18.42v-5h1v4.12h2.37V13.47h1v4.12h.81v2.26h-.87V18.42Z"/><path class="cls-1" d="M136.4,14.7l-2.81,3.72h-1v-5h1v3.6l2.81-3.6h1v5h-1Z"/><path class="cls-1" d="M141.35,16.46a1.35,1.35,0,0,0-1.11.48,2.8,2.8,0,0,0-.49,1.48h-1.07a3.59,3.59,0,0,1,.48-1.51,1.75,1.75,0,0,1,1-.79v0a1.62,1.62,0,0,1-.86-.34,1,1,0,0,1-.35-.88,1.28,1.28,0,0,1,.15-.63,1.33,1.33,0,0,1,.41-.44,2.19,2.19,0,0,1,.64-.25,3.6,3.6,0,0,1,.83-.08H143v5h-1v-2ZM139.91,15a.64.64,0,0,0,.09.36.71.71,0,0,0,.27.21,1.4,1.4,0,0,0,.39.09,3.91,3.91,0,0,0,.49,0h.92V14.29h-.93a4.18,4.18,0,0,0-.51,0,1.12,1.12,0,0,0-.39.09.59.59,0,0,0-.25.22A.64.64,0,0,0,139.91,15Z"/><path class="cls-1" d="M80.79,29.42h-1V23H77.42v-.89h5.74V23H80.79Z"/><path class="cls-1" d="M85.1,31.92h-1V24.48h.94v.79h0a1.94,1.94,0,0,1,.77-.68,2.25,2.25,0,0,1,1-.24,2.63,2.63,0,0,1,1,.2,2.47,2.47,0,0,1,.79.56,2.56,2.56,0,0,1,.5.83,2.92,2.92,0,0,1,0,2,2.67,2.67,0,0,1-.5.83,2.47,2.47,0,0,1-.79.56,2.51,2.51,0,0,1-1,.21,2.31,2.31,0,0,1-1-.23,1.85,1.85,0,0,1-.77-.67h0Zm3.32-5a2.26,2.26,0,0,0-.11-.69,1.64,1.64,0,0,0-.33-.57,1.47,1.47,0,0,0-.53-.38,1.61,1.61,0,0,0-.71-.15,1.82,1.82,0,0,0-.7.14,1.6,1.6,0,0,0-.54.38,2.12,2.12,0,0,0-.36.57,2.06,2.06,0,0,0-.12.7,2,2,0,0,0,.12.7,1.85,1.85,0,0,0,.36.57,1.63,1.63,0,0,0,.54.39,1.82,1.82,0,0,0,.7.14,1.61,1.61,0,0,0,.71-.15A1.38,1.38,0,0,0,88,28.2a1.47,1.47,0,0,0,.33-.57A2.17,2.17,0,0,0,88.42,26.94Z"/><path class="cls-1" d="M92.65,28.38h0l1.39-3.9h1L92.93,30q-.17.42-.33.78a3,3,0,0,1-.36.61,1.42,1.42,0,0,1-.51.4,1.78,1.78,0,0,1-.74.14l-.37,0-.35,0,.1-.85a1,1,0,0,0,.25.07,1.33,1.33,0,0,0,.28,0,.74.74,0,0,0,.57-.21,1.85,1.85,0,0,0,.35-.61l.34-.88-2.1-4.92h1.07Z"/><path class="cls-1" d="M96.1,30.87h-.87V28.63H96l1.7-4.15h1l1.58,4.15h.84v2.24h-.88V29.42H96.1Zm1.83-4.64L97,28.63h2.33l-1.11-3Z"/><path class="cls-1" d="M104.3,27.47a1.35,1.35,0,0,0-1.11.48,2.79,2.79,0,0,0-.5,1.47h-1.07a3.45,3.45,0,0,1,.49-1.5,1.71,1.71,0,0,1,1-.79v0a1.62,1.62,0,0,1-.87-.34,1.06,1.06,0,0,1-.35-.88,1.28,1.28,0,0,1,.15-.63,1.26,1.26,0,0,1,.42-.44,2,2,0,0,1,.64-.25,3.51,3.51,0,0,1,.82-.08H106v4.94h-1v-2ZM102.85,26a.57.57,0,0,0,.1.36.52.52,0,0,0,.26.2,1.17,1.17,0,0,0,.4.1,3.68,3.68,0,0,0,.49,0H105V25.3h-.92a4,4,0,0,0-.51,0,1.12,1.12,0,0,0-.39.09.58.58,0,0,0-.25.21A.7.7,0,0,0,102.85,26Z"/><path class="cls-1" d="M107.57,29.42V24.48h1v4.16h1.92V24.48h1v4.16h1.93V24.48h1v4.16h.82v2.23h-.88V29.42Z"/><path class="cls-1" d="M119.92,25.71l-2.8,3.71h-1V24.48h1v3.6l2.8-3.6h1v4.94h-1Z"/><path class="cls-1" d="M123.8,26.86,122,24.48h1.19l1.23,1.73,1.24-1.73h1.13L125,26.84l2,2.58h-1.2l-1.36-1.91L123,29.42h-1.14Z"/><path class="cls-1" d="M131.44,25.74a1.24,1.24,0,0,0-.48-.42,1.45,1.45,0,0,0-.68-.16,1.75,1.75,0,0,0-.7.14,1.56,1.56,0,0,0-.53.38,1.63,1.63,0,0,0-.34.57,2.1,2.1,0,0,0,0,1.4,1.63,1.63,0,0,0,.34.57,1.56,1.56,0,0,0,.53.38,1.75,1.75,0,0,0,.7.14,1.49,1.49,0,0,0,.71-.16,1.43,1.43,0,0,0,.5-.41l.65.58a2.6,2.6,0,0,1-.79.59,2.45,2.45,0,0,1-1.08.22,3.15,3.15,0,0,1-1.09-.19,2.43,2.43,0,0,1-.84-.54,2.61,2.61,0,0,1-.55-.83,2.86,2.86,0,0,1,0-2.1,2.61,2.61,0,0,1,.55-.83,2.43,2.43,0,0,1,.84-.54,2.94,2.94,0,0,1,1.09-.19,2.66,2.66,0,0,1,1,.21,2,2,0,0,1,.82.61Z"/><path class="cls-1" d="M135.4,27.47a1.33,1.33,0,0,0-1.1.48,2.79,2.79,0,0,0-.5,1.47h-1.07a3.59,3.59,0,0,1,.48-1.5,1.73,1.73,0,0,1,1-.79v0a1.62,1.62,0,0,1-.87-.34,1.06,1.06,0,0,1-.35-.88,1.28,1.28,0,0,1,.15-.63,1.26,1.26,0,0,1,.42-.44,1.86,1.86,0,0,1,.64-.25,3.51,3.51,0,0,1,.82-.08h2.07v4.94h-1v-2ZM134,26a.57.57,0,0,0,.1.36.52.52,0,0,0,.26.2,1.12,1.12,0,0,0,.4.1,3.64,3.64,0,0,0,.48,0h.92V25.3h-.93a4.18,4.18,0,0,0-.51,0,1,1,0,0,0-.38.09.53.53,0,0,0-.25.21A.7.7,0,0,0,134,26Z"/><path class="cls-1" d="M81.94,37a2.56,2.56,0,0,0-2.07.83,4.83,4.83,0,0,0-1,2.61H77.79q.34-3.07,2.3-4L77.8,33.07h1.12L81,36.18a5.5,5.5,0,0,1,.91-.08v-3h1v3a3.7,3.7,0,0,1,.48,0l.45.06L86,33.07h1.1l-2.3,3.41q2,.89,2.31,4H86c-.29-2.33-1.3-3.48-3-3.44v3.44h-1Z"/><path class="cls-1" d="M93.07,37.87V38c0,.06,0,.12,0,.18h-4a1.44,1.44,0,0,0,.14.62,1.54,1.54,0,0,0,.34.49,1.65,1.65,0,0,0,.52.33,1.51,1.51,0,0,0,.63.13,1.62,1.62,0,0,0,.89-.24,1.79,1.79,0,0,0,.56-.53l.7.5a2.58,2.58,0,0,1-1,.8,2.76,2.76,0,0,1-1.19.25,2.7,2.7,0,0,1-1-.19,2.32,2.32,0,0,1-.83-.53,2.44,2.44,0,0,1-.54-.82,2.6,2.6,0,0,1-.2-1.06,2.85,2.85,0,0,1,.19-1.06,2.48,2.48,0,0,1,.54-.83,2.46,2.46,0,0,1,.8-.54,2.59,2.59,0,0,1,1-.19,2.46,2.46,0,0,1,1,.19,2.31,2.31,0,0,1,.76.53,2.45,2.45,0,0,1,.47.8A3.13,3.13,0,0,1,93.07,37.87Zm-.94-.34a1.53,1.53,0,0,0-.39-1,1.39,1.39,0,0,0-1.07-.4,1.46,1.46,0,0,0-.6.12,1.64,1.64,0,0,0-.49.31,1.85,1.85,0,0,0-.33.46,1.37,1.37,0,0,0-.15.54Z"/><path class="cls-1" d="M95.4,40.43h-1v-5h1v2h2.5v-2h1v5h-1V38.22H95.4Z"/><path class="cls-1" d="M100.53,40.43v-5h1v4.17h1.92V35.48h1v4.17h1.93V35.48h1v4.17h.82v2.23h-.88V40.43Z"/><path class="cls-1" d="M112.88,36.72l-2.8,3.71h-1v-5h1v3.61l2.8-3.61h1v5h-1Z"/><path class="cls-1" d="M116.49,40.43h-1v-5h1v2H119v-2h1v5h-1V38.22h-2.51Z"/><polygon class="cls-1" points="54.37 56.89 54.37 44.72 49.48 44.72 49.48 56.82 54.37 56.89"/><polygon class="cls-1" points="61.76 59.39 72.16 44.72 66.34 44.72 57.22 57.45 61.76 59.39"/><polygon class="cls-1" points="46.52 57.3 37.47 44.72 31.65 44.72 41.84 59.11 46.52 57.3"/><polygon class="cls-1" points="62.52 71.16 58.05 73.39 66.38 85.35 72.62 85.35 62.52 71.16"/><polygon class="cls-1" points="49.48 74.26 49.48 85.35 54.37 85.35 54.37 74.18 49.48 74.26"/><polygon class="cls-1" points="41.06 71.48 31.18 85.35 37.42 85.35 45.66 73.56 41.06 71.48"/></g></g></svg>