<?xml version="1.0" encoding="utf-8"?><svg xmlns="http://www.w3.org/2000/svg" xmlns:xlink="http://www.w3.org/1999/xlink"><symbol viewBox="0 0 320 512" id="angle-down" xmlns="http://www.w3.org/2000/svg"><path d="M143 352.3L7 216.3c-9.4-9.4-9.4-24.6 0-33.9l22.6-22.6c9.4-9.4 24.6-9.4 33.9 0l96.4 96.4 96.4-96.4c9.4-9.4 24.6-9.4 33.9 0l22.6 22.6c9.4 9.4 9.4 24.6 0 33.9l-136 136c-9.2 9.4-24.4 9.4-33.8 0z"/></symbol><symbol viewBox="0 0 320 512" id="angle-up" xmlns="http://www.w3.org/2000/svg"><path d="M177 159.7l136 136c9.4 9.4 9.4 24.6 0 33.9l-22.6 22.6c-9.4 9.4-24.6 9.4-33.9 0L160 255.9l-96.4 96.4c-9.4 9.4-24.6 9.4-33.9 0L7 329.7c-9.4-9.4-9.4-24.6 0-33.9l136-136c9.4-9.5 24.6-9.5 34-.1z"/></symbol><symbol viewBox="0 0 595.28 500.6" id="arrow" xmlns="http://www.w3.org/2000/svg"><path d="M593.6 16.81c.34 9-5.75 14.69-9.38 21.43s-7.82 13.37-11.82 20-8.2 13.28-12.24 20c-3.88 6.42-7.63 12.91-11.49 19.33-4.11 6.83-8.35 13.58-12.4 20.45-4.79 8.13-9.34 16.4-14.17 24.5-3.86 6.47-8.08 12.72-12 19.15s-7.78 13.27-11.71 19.88c-3.08 5.17-6.26 10.29-9.37 15.44-3.91 6.49-7.78 13-11.7 19.51-4.12 6.83-8.34 13.59-12.39 20.46-4.8 8.16-9.36 16.46-14.2 24.59-4.64 7.81-9.55 15.45-14.26 23.22-4.1 6.78-8.05 13.65-12.13 20.45-3.85 6.42-7.82 12.78-11.67 19.2-4.08 6.8-8 13.66-12.12 20.45-3.85 6.42-7.82 12.78-11.68 19.2-4.08 6.8-8 13.66-12.11 20.46-3.85 6.42-7.83 12.77-11.68 19.2-4.08 6.8-8 13.65-12.11 20.46-3.78 6.35-7.64 12.65-11.43 19-4.15 6.94-8.16 14-12.4 20.86-4.91 8-9 16.82-15.34 23.42-5.27 5.47-13.52 6.34-21.66 4.58-4.58-1-9.61-1-12.69-4.74-3.64-4.49-6.49-9.63-9.52-14.6-4.13-6.78-8.08-13.67-12.12-20.5q-5.85-9.87-11.74-19.7c-4-6.67-8.07-13.31-12.07-20s-7.79-13.16-11.72-19.71-8.08-13.28-12.08-19.94-7.78-13.16-11.71-19.71-8.08-13.28-12.08-19.94-7.78-13.16-11.71-19.72-8.09-13.27-12.09-19.94-7.77-13.16-11.7-19.72-8.09-13.27-12.09-19.94-7.78-13.16-11.7-19.72-7.94-13.18-11.89-19.78-7.91-13.39-11.94-20-8.2-13.2-12.2-19.86-7.66-13.16-11.57-19.69-8.14-13.24-12.14-19.9-7.73-13.11-11.63-19.65S47.81 102 43.86 95.43s-7.94-13.36-11.94-20-7.86-13-11.77-19.56c-4-6.74-7.75-13.7-12.15-20.19C4.1 29.9 1.31 24.2 2.28 17c.58-4.3 8.83-13.42 13.25-13.55 5.78-.17 11.74-1 17.32.09A68.67 68.67 0 0 1 50.26 9c4.74 2.36 10.22 3.32 15.36 4.9 6.47 2 12.93 4 19.33 6.18 4.74 1.62 9.52 3.46 14.4 4.76 6.84 1.83 13.46 4.21 20.14 6.46 4.86 1.63 9.85 3.31 14.85 4.75 6.57 1.9 13.06 4.08 19.52 6.15 5.37 1.72 10.71 4.05 16.4 5.2 5.9 1.19 11.51 3.78 17.28 5.67 5.41 1.78 10.86 3.44 16.29 5.17 6 1.9 11.93 3.83 17.9 5.73 5.67 1.81 11.36 3.54 17 5.39 5.94 2 12 3.36 17.88 5.75 4.41 1.79 9.2 3 13.82 4.56 10.89 3.56 22 6.59 33.63 4.9 9.14-1.33 17.8-4.51 26.39-7.91a143.27 143.27 0 0 1 15.9-5c6.29-1.67 12.41-3.72 18.55-5.84 5.32-1.82 10.7-3.76 16.1-5.32 6.14-1.77 12.25-3.59 18.31-5.67C404.8 53 410.3 51 415.89 49.36c6-1.71 12-3.82 17.95-5.55 5.67-1.66 11-4.3 16.79-5.63 6-1.36 11.73-3.66 17.54-5.5 5.17-1.63 10.29-3.51 15.48-5.14 6.35-2 12.76-3.81 19.06-6 5.06-1.75 10.34-3.55 15.62-5 6.16-1.72 12.17-4 18.26-6 5.2-1.71 10.39-3.47 15.65-5 4.31-1.24 8.8-3.29 13.05-3 5.38.43 11.06-.45 16.29 2.17 3.47 1.74 7.2 2.58 10.4 5.3 2.9 2.52.27 5.06 1.62 6.8z"/></symbol><symbol viewBox="0 0 448 512" id="bars" xmlns="http://www.w3.org/2000/svg"><path d="M16 132h416c8.837 0 16-7.163 16-16V76c0-8.837-7.163-16-16-16H16C7.163 60 0 67.163 0 76v40c0 8.837 7.163 16 16 16zm0 160h416c8.837 0 16-7.163 16-16v-40c0-8.837-7.163-16-16-16H16c-8.837 0-16 7.163-16 16v40c0 8.837 7.163 16 16 16zm0 160h416c8.837 0 16-7.163 16-16v-40c0-8.837-7.163-16-16-16H16c-8.837 0-16 7.163-16 16v40c0 8.837 7.163 16 16 16z"/></symbol><symbol viewBox="0 0 512 512" id="dribbble" xmlns="http://www.w3.org/2000/svg"><path d="M256 8C119.252 8 8 119.252 8 256s111.252 248 248 248 248-111.252 248-248S392.748 8 256 8zm163.97 114.366c29.503 36.046 47.369 81.957 47.835 131.955-6.984-1.477-77.018-15.682-147.502-6.818-5.752-14.041-11.181-26.393-18.617-41.614 78.321-31.977 113.818-77.482 118.284-83.523zM396.421 97.87c-3.81 5.427-35.697 48.286-111.021 76.519-34.712-63.776-73.185-116.168-79.04-124.008 67.176-16.193 137.966 1.27 190.061 47.489zm-230.48-33.25c5.585 7.659 43.438 60.116 78.537 122.509-99.087 26.313-186.36 25.934-195.834 25.809C62.38 147.205 106.678 92.573 165.941 64.62zM44.17 256.323c0-2.166.043-4.322.108-6.473 9.268.19 111.92 1.513 217.706-30.146 6.064 11.868 11.857 23.915 17.174 35.949-76.599 21.575-146.194 83.527-180.531 142.306C64.794 360.405 44.17 310.73 44.17 256.323zm81.807 167.113c22.127-45.233 82.178-103.622 167.579-132.756 29.74 77.283 42.039 142.053 45.189 160.638-68.112 29.013-150.015 21.053-212.768-27.882zm248.38 8.489c-2.171-12.886-13.446-74.897-41.152-151.033 66.38-10.626 124.7 6.768 131.947 9.055-9.442 58.941-43.273 109.844-90.795 141.978z"/></symbol><symbol viewBox="0 0 512 512" id="envelope" xmlns="http://www.w3.org/2000/svg"><path d="M502.3 190.8c3.9-3.1 9.7-.2 9.7 4.7V400c0 26.5-21.5 48-48 48H48c-26.5 0-48-21.5-48-48V195.6c0-5 5.7-7.8 9.7-4.7 22.4 17.4 52.1 39.5 154.1 113.6 21.1 15.4 56.7 47.8 92.2 47.6 35.7.3 72-32.8 92.3-47.6 102-74.1 131.6-96.3 154-113.7zM256 320c23.2.4 56.6-29.2 73.4-41.4 132.7-96.3 142.8-104.7 173.4-128.7 5.8-4.5 9.2-11.5 9.2-18.9v-19c0-26.5-21.5-48-48-48H48C21.5 64 0 85.5 0 112v19c0 7.4 3.4 14.3 9.2 18.9 30.6 23.9 40.7 32.4 173.4 128.7 16.8 12.2 50.2 41.8 73.4 41.4z"/></symbol><symbol viewBox="0 0 384 512" id="map-marker-alt" xmlns="http://www.w3.org/2000/svg"><path d="M172.268 501.67C26.97 291.031 0 269.413 0 192 0 85.961 85.961 0 192 0s192 85.961 192 192c0 77.413-26.97 99.031-172.268 309.67-9.535 13.774-29.93 13.773-39.464 0zM192 272c44.183 0 80-35.817 80-80s-35.817-80-80-80-80 35.817-80 80 35.817 80 80 80z"/></symbol><symbol viewBox="0 0 320 512" id="mobile-alt" xmlns="http://www.w3.org/2000/svg"><path d="M272 0H48C21.5 0 0 21.5 0 48v416c0 26.5 21.5 48 48 48h224c26.5 0 48-21.5 48-48V48c0-26.5-21.5-48-48-48zM160 480c-17.7 0-32-14.3-32-32s14.3-32 32-32 32 14.3 32 32-14.3 32-32 32zm112-108c0 6.6-5.4 12-12 12H60c-6.6 0-12-5.4-12-12V60c0-6.6 5.4-12 12-12h200c6.6 0 12 5.4 12 12v312z"/></symbol><symbol viewBox="0 0 512 512" id="paper-plane" xmlns="http://www.w3.org/2000/svg"><path d="M476 3.2L12.5 270.6c-18.1 10.4-15.8 35.6 2.2 43.2L121 358.4l287.3-253.2c5.5-4.9 13.3 2.6 8.6 8.3L176 407v80.5c0 23.6 28.5 32.9 42.5 15.8L282 426l124.6 52.2c14.2 6 30.4-2.9 33-18.2l72-432C515 7.8 493.3-6.8 476 3.2z"/></symbol><symbol viewBox="0 0 512 512" id="search" xmlns="http://www.w3.org/2000/svg"><path d="M505 442.7L405.3 343c-4.5-4.5-10.6-7-17-7H372c27.6-35.3 44-79.7 44-128C416 93.1 322.9 0 208 0S0 93.1 0 208s93.1 208 208 208c48.3 0 92.7-16.4 128-44v16.3c0 6.4 2.5 12.5 7 17l99.7 99.7c9.4 9.4 24.6 9.4 33.9 0l28.3-28.3c9.4-9.4 9.4-24.6.1-34zM208 336c-70.7 0-128-57.2-128-128 0-70.7 57.2-128 128-128 70.7 0 128 57.2 128 128 0 70.7-57.2 128-128 128z"/></symbol><symbol viewBox="0 0 352 512" id="times" xmlns="http://www.w3.org/2000/svg"><path d="M242.72 256l100.07-100.07c12.28-12.28 12.28-32.19 0-44.48l-22.24-22.24c-12.28-12.28-32.19-12.28-44.48 0L176 189.28 75.93 89.21c-12.28-12.28-32.19-12.28-44.48 0L9.21 111.45c-12.28 12.28-12.28 32.19 0 44.48L109.28 256 9.21 356.07c-12.28 12.28-12.28 32.19 0 44.48l22.24 22.24c12.28 12.28 32.2 12.28 44.48 0L176 322.72l100.07 100.07c12.28 12.28 32.2 12.28 44.48 0l22.24-22.24c12.28-12.28 12.28-32.19 0-44.48L242.72 256z"/></symbol><symbol viewBox="0 0 512 512" id="twitter" xmlns="http://www.w3.org/2000/svg"><path d="M459.37 151.716c.325 4.548.325 9.097.325 13.645 0 138.72-105.583 298.558-298.558 298.558-59.452 0-114.68-17.219-161.137-47.106 8.447.974 16.568 1.299 25.34 1.299 49.055 0 94.213-16.568 130.274-44.832-46.132-.975-84.792-31.188-98.112-72.772 6.498.974 12.995 1.624 19.818 1.624 9.421 0 18.843-1.3 27.614-3.573-48.081-9.747-84.143-51.98-84.143-102.985v-1.299c13.969 7.797 30.214 12.67 47.431 13.319-28.264-18.843-46.781-51.005-46.781-87.391 0-19.492 5.197-37.36 14.294-52.954 51.655 63.675 129.3 105.258 216.365 109.807-1.624-7.797-2.599-15.918-2.599-24.04 0-57.828 46.782-104.934 104.934-104.934 30.213 0 57.502 12.67 76.67 33.137 23.715-4.548 46.456-13.32 66.599-25.34-7.798 24.366-24.366 44.833-46.132 57.827 21.117-2.273 41.584-8.122 60.426-16.243-14.292 20.791-32.161 39.308-52.628 54.253z"/></symbol></svg>